<?xml version="1.0" standalone="no"?><svg xmlns="http://www.w3.org/2000/svg" viewBox="0 0 1440 320"><path fill="#b2bec3" fill-opacity="1" d="M0,160L14.1,165.3C28.2,171,56,181,85,197.3C112.9,213,141,235,169,250.7C197.6,267,226,277,254,277.3C282.4,277,311,267,339,272C367.1,277,395,299,424,298.7C451.8,299,480,277,508,234.7C536.5,192,565,128,593,117.3C621.2,107,649,149,678,170.7C705.9,192,734,192,762,176C790.6,160,819,128,847,117.3C875.3,107,904,117,932,154.7C960,192,988,256,1016,240C1044.7,224,1073,128,1101,128C1129.4,128,1158,224,1186,261.3C1214.1,299,1242,277,1271,272C1298.8,267,1327,277,1355,250.7C1383.5,224,1412,160,1426,128L1440,96L1440,320L1425.9,320C1411.8,320,1384,320,1355,320C1327.1,320,1299,320,1271,320C1242.4,320,1214,320,1186,320C1157.6,320,1129,320,1101,320C1072.9,320,1045,320,1016,320C988.2,320,960,320,932,320C903.5,320,875,320,847,320C818.8,320,791,320,762,320C734.1,320,706,320,678,320C649.4,320,621,320,593,320C564.7,320,536,320,508,320C480,320,452,320,424,320C395.3,320,367,320,339,320C310.6,320,282,320,254,320C225.9,320,198,320,169,320C141.2,320,113,320,85,320C56.5,320,28,320,14,320L0,320Z"></path></svg>